<svg xmlns="http://www.w3.org/2000/svg" xmlns:xlink="http://www.w3.org/1999/xlink" width="1080" zoomAndPan="magnify" viewBox="0 0 810 809.999993" height="1080" preserveAspectRatio="xMidYMid meet" version="1.0"><path fill="#000000" d="M 405.035156 426.460938 C 494.167969 426.460938 566.671875 331.835938 566.671875 242.691406 C 566.671875 153.542969 494.167969 81 405.035156 81 C 315.898438 81 243.390625 153.542969 243.390625 242.691406 C 243.402344 331.832031 315.90625 426.460938 405.035156 426.460938 Z M 405.035156 426.460938 " fill-opacity="1" fill-rule="nonzero"/><path fill="#000000" d="M 526.378906 428.121094 C 495.027344 452.015625 455.910156 466.230469 413.542969 466.230469 L 396.527344 466.230469 C 354.148438 466.230469 315.027344 452.007812 283.679688 428.121094 C 181.304688 444.671875 103.125 533.429688 103.125 640.492188 C 103.125 699.308594 238.292969 747 405.035156 747 C 571.769531 747 706.941406 699.308594 706.941406 640.492188 C 706.941406 533.429688 628.757812 444.671875 526.378906 428.121094 Z M 526.378906 428.121094 " fill-opacity="1" fill-rule="nonzero"/></svg>